<mxfile host="app.diagrams.net" modified="2022-11-30T14:51:52.317Z" agent="5.0 (Windows NT 10.0; Win64; x64) AppleWebKit/537.36 (KHTML, like Gecko) Chrome/107.0.0.0 Safari/537.36" version="20.6.0" etag="RPtgm3eupU5tZsLyuSBi" type="github">
  <diagram id="NEVeUOUwjUj5WB6StoSR" name="페이지-1">
    <mxGraphModel dx="1053" dy="588" grid="1" gridSize="10" guides="1" tooltips="1" connect="1" arrows="1" fold="1" page="1" pageScale="1" pageWidth="827" pageHeight="1169" math="0" shadow="0">
      <root>
        <mxCell id="0" />
        <mxCell id="1" parent="0" />
        <mxCell id="mApiR5pZiivCtiRtxZdv-16" style="rounded=0;orthogonalLoop=1;jettySize=auto;html=1;exitX=1;exitY=0.3333333333333333;exitDx=0;exitDy=0;exitPerimeter=0;entryX=0;entryY=0.5;entryDx=0;entryDy=0;endArrow=none;endFill=0;" edge="1" parent="1" source="mApiR5pZiivCtiRtxZdv-1" target="mApiR5pZiivCtiRtxZdv-3">
          <mxGeometry relative="1" as="geometry" />
        </mxCell>
        <mxCell id="mApiR5pZiivCtiRtxZdv-17" style="edgeStyle=none;rounded=0;orthogonalLoop=1;jettySize=auto;html=1;exitX=1;exitY=0.3333333333333333;exitDx=0;exitDy=0;exitPerimeter=0;entryX=0;entryY=0.5;entryDx=0;entryDy=0;endArrow=none;endFill=0;" edge="1" parent="1" source="mApiR5pZiivCtiRtxZdv-1" target="mApiR5pZiivCtiRtxZdv-7">
          <mxGeometry relative="1" as="geometry" />
        </mxCell>
        <mxCell id="mApiR5pZiivCtiRtxZdv-18" style="edgeStyle=none;rounded=0;orthogonalLoop=1;jettySize=auto;html=1;exitX=1;exitY=0.3333333333333333;exitDx=0;exitDy=0;exitPerimeter=0;entryX=0;entryY=0.75;entryDx=0;entryDy=0;endArrow=none;endFill=0;" edge="1" parent="1" source="mApiR5pZiivCtiRtxZdv-1" target="mApiR5pZiivCtiRtxZdv-5">
          <mxGeometry relative="1" as="geometry" />
        </mxCell>
        <mxCell id="mApiR5pZiivCtiRtxZdv-19" style="edgeStyle=none;rounded=0;orthogonalLoop=1;jettySize=auto;html=1;exitX=1;exitY=0.3333333333333333;exitDx=0;exitDy=0;exitPerimeter=0;entryX=0;entryY=0.5;entryDx=0;entryDy=0;endArrow=none;endFill=0;" edge="1" parent="1" source="mApiR5pZiivCtiRtxZdv-1" target="mApiR5pZiivCtiRtxZdv-6">
          <mxGeometry relative="1" as="geometry" />
        </mxCell>
        <mxCell id="mApiR5pZiivCtiRtxZdv-1" value="이용자" style="shape=umlActor;verticalLabelPosition=bottom;verticalAlign=top;html=1;" vertex="1" parent="1">
          <mxGeometry x="60" y="525" width="30" height="60" as="geometry" />
        </mxCell>
        <mxCell id="mApiR5pZiivCtiRtxZdv-2" value="게시판 서비스" style="shape=umlFrame;whiteSpace=wrap;html=1;width=110;height=20;" vertex="1" parent="1">
          <mxGeometry x="150" y="290" width="640" height="520" as="geometry" />
        </mxCell>
        <mxCell id="mApiR5pZiivCtiRtxZdv-3" value="회원 가입" style="rounded=1;whiteSpace=wrap;html=1;arcSize=40;fontColor=#000000;fillColor=#ffffc0;strokeColor=#ff0000;" vertex="1" parent="1">
          <mxGeometry x="200" y="500" width="120" height="40" as="geometry" />
        </mxCell>
        <mxCell id="mApiR5pZiivCtiRtxZdv-24" style="edgeStyle=none;rounded=0;orthogonalLoop=1;jettySize=auto;html=1;exitX=1;exitY=0.25;exitDx=0;exitDy=0;entryX=0.5;entryY=1;entryDx=0;entryDy=0;dashed=1;endArrow=classic;endFill=1;" edge="1" parent="1" source="mApiR5pZiivCtiRtxZdv-5" target="mApiR5pZiivCtiRtxZdv-7">
          <mxGeometry relative="1" as="geometry" />
        </mxCell>
        <mxCell id="mApiR5pZiivCtiRtxZdv-5" value="게시판 보기" style="rounded=1;whiteSpace=wrap;html=1;arcSize=40;fontColor=#000000;fillColor=#ffffc0;strokeColor=#ff0000;" vertex="1" parent="1">
          <mxGeometry x="200" y="585" width="120" height="40" as="geometry" />
        </mxCell>
        <mxCell id="mApiR5pZiivCtiRtxZdv-29" style="edgeStyle=none;rounded=0;orthogonalLoop=1;jettySize=auto;html=1;exitX=1;exitY=0.25;exitDx=0;exitDy=0;entryX=0.5;entryY=1;entryDx=0;entryDy=0;dashed=1;endArrow=classic;endFill=1;" edge="1" parent="1" source="mApiR5pZiivCtiRtxZdv-6" target="mApiR5pZiivCtiRtxZdv-7">
          <mxGeometry relative="1" as="geometry" />
        </mxCell>
        <mxCell id="mApiR5pZiivCtiRtxZdv-6" value="게시글 보기" style="rounded=1;whiteSpace=wrap;html=1;arcSize=40;fontColor=#000000;fillColor=#ffffc0;strokeColor=#ff0000;" vertex="1" parent="1">
          <mxGeometry x="200" y="680" width="120" height="40" as="geometry" />
        </mxCell>
        <mxCell id="mApiR5pZiivCtiRtxZdv-20" value="&amp;lt;&amp;lt;include&amp;gt;&amp;gt;" style="edgeStyle=none;rounded=0;orthogonalLoop=1;jettySize=auto;html=1;exitX=1;exitY=0.5;exitDx=0;exitDy=0;entryX=0;entryY=0.5;entryDx=0;entryDy=0;endArrow=classic;endFill=1;dashed=1;" edge="1" parent="1" source="mApiR5pZiivCtiRtxZdv-7" target="mApiR5pZiivCtiRtxZdv-8">
          <mxGeometry relative="1" as="geometry" />
        </mxCell>
        <mxCell id="mApiR5pZiivCtiRtxZdv-7" value="회원 로그인" style="rounded=1;whiteSpace=wrap;html=1;arcSize=40;fontColor=#000000;fillColor=#ffffc0;strokeColor=#ff0000;" vertex="1" parent="1">
          <mxGeometry x="370" y="360" width="120" height="40" as="geometry" />
        </mxCell>
        <mxCell id="mApiR5pZiivCtiRtxZdv-8" value="인증" style="rounded=1;whiteSpace=wrap;html=1;arcSize=40;fontColor=#000000;fillColor=#ffffc0;strokeColor=#ff0000;" vertex="1" parent="1">
          <mxGeometry x="590" y="360" width="120" height="40" as="geometry" />
        </mxCell>
        <mxCell id="mApiR5pZiivCtiRtxZdv-22" value="&amp;lt;&amp;lt;extend&amp;gt;&amp;gt;" style="edgeStyle=none;rounded=0;orthogonalLoop=1;jettySize=auto;html=1;exitX=0;exitY=0.5;exitDx=0;exitDy=0;entryX=1;entryY=0.5;entryDx=0;entryDy=0;dashed=1;endArrow=classic;endFill=1;" edge="1" parent="1" source="mApiR5pZiivCtiRtxZdv-9" target="mApiR5pZiivCtiRtxZdv-7">
          <mxGeometry relative="1" as="geometry" />
        </mxCell>
        <mxCell id="mApiR5pZiivCtiRtxZdv-9" value="로그인 실패" style="rounded=1;whiteSpace=wrap;html=1;arcSize=40;fontColor=#000000;fillColor=#ffffc0;strokeColor=#ff0000;" vertex="1" parent="1">
          <mxGeometry x="590" y="420" width="120" height="40" as="geometry" />
        </mxCell>
        <mxCell id="mApiR5pZiivCtiRtxZdv-30" style="edgeStyle=none;rounded=0;orthogonalLoop=1;jettySize=auto;html=1;exitX=0;exitY=0.5;exitDx=0;exitDy=0;entryX=1;entryY=0.5;entryDx=0;entryDy=0;dashed=1;endArrow=classic;endFill=1;" edge="1" parent="1" source="mApiR5pZiivCtiRtxZdv-11" target="mApiR5pZiivCtiRtxZdv-5">
          <mxGeometry relative="1" as="geometry" />
        </mxCell>
        <mxCell id="mApiR5pZiivCtiRtxZdv-11" value="게시판 정렬하기" style="rounded=1;whiteSpace=wrap;html=1;arcSize=40;fontColor=#000000;fillColor=#ffffc0;strokeColor=#ff0000;" vertex="1" parent="1">
          <mxGeometry x="440" y="500" width="120" height="40" as="geometry" />
        </mxCell>
        <mxCell id="mApiR5pZiivCtiRtxZdv-35" style="edgeStyle=none;rounded=0;orthogonalLoop=1;jettySize=auto;html=1;exitX=0;exitY=0.5;exitDx=0;exitDy=0;entryX=1;entryY=0.5;entryDx=0;entryDy=0;dashed=1;endArrow=classic;endFill=1;" edge="1" parent="1" source="mApiR5pZiivCtiRtxZdv-12" target="mApiR5pZiivCtiRtxZdv-5">
          <mxGeometry relative="1" as="geometry" />
        </mxCell>
        <mxCell id="mApiR5pZiivCtiRtxZdv-12" value="게시판 검색" style="rounded=1;whiteSpace=wrap;html=1;arcSize=40;fontColor=#000000;fillColor=#ffffc0;strokeColor=#ff0000;" vertex="1" parent="1">
          <mxGeometry x="440" y="565" width="120" height="40" as="geometry" />
        </mxCell>
        <mxCell id="mApiR5pZiivCtiRtxZdv-36" style="edgeStyle=none;rounded=0;orthogonalLoop=1;jettySize=auto;html=1;exitX=0;exitY=0.5;exitDx=0;exitDy=0;entryX=1;entryY=0.5;entryDx=0;entryDy=0;dashed=1;endArrow=classic;endFill=1;" edge="1" parent="1" source="mApiR5pZiivCtiRtxZdv-14" target="mApiR5pZiivCtiRtxZdv-6">
          <mxGeometry relative="1" as="geometry" />
        </mxCell>
        <mxCell id="mApiR5pZiivCtiRtxZdv-14" value="게시글 쓰기, 수정, 삭제" style="rounded=1;whiteSpace=wrap;html=1;arcSize=40;fontColor=#000000;fillColor=#ffffc0;strokeColor=#ff0000;" vertex="1" parent="1">
          <mxGeometry x="430" y="630" width="140" height="40" as="geometry" />
        </mxCell>
        <mxCell id="mApiR5pZiivCtiRtxZdv-41" style="edgeStyle=none;rounded=0;orthogonalLoop=1;jettySize=auto;html=1;exitX=0;exitY=0.5;exitDx=0;exitDy=0;entryX=1;entryY=0.5;entryDx=0;entryDy=0;dashed=1;endArrow=classic;endFill=1;" edge="1" parent="1" source="mApiR5pZiivCtiRtxZdv-15" target="mApiR5pZiivCtiRtxZdv-6">
          <mxGeometry relative="1" as="geometry" />
        </mxCell>
        <mxCell id="mApiR5pZiivCtiRtxZdv-15" value="댓글 보기, 쓰기, 수정, 삭제" style="rounded=1;whiteSpace=wrap;html=1;arcSize=40;fontColor=#000000;fillColor=#ffffc0;strokeColor=#ff0000;" vertex="1" parent="1">
          <mxGeometry x="430" y="700" width="140" height="40" as="geometry" />
        </mxCell>
      </root>
    </mxGraphModel>
  </diagram>
</mxfile>
